<?xml version="1.0" encoding="utf-8" standalone="no"?>
<!DOCTYPE svg PUBLIC "-//W3C//DTD SVG 1.1//EN"
  "http://www.w3.org/Graphics/SVG/1.1/DTD/svg11.dtd">
<svg xmlns:xlink="http://www.w3.org/1999/xlink" width="659.87875pt" height="451.428281pt" viewBox="0 0 659.87875 451.428281" xmlns="http://www.w3.org/2000/svg" version="1.1">
 <metadata>
  <rdf:RDF xmlns:dc="http://purl.org/dc/elements/1.1/" xmlns:cc="http://creativecommons.org/ns#" xmlns:rdf="http://www.w3.org/1999/02/22-rdf-syntax-ns#">
   <cc:Work>
    <dc:type rdf:resource="http://purl.org/dc/dcmitype/StillImage"/>
    <dc:date>2024-04-26T08:49:47.995805</dc:date>
    <dc:format>image/svg+xml</dc:format>
    <dc:creator>
     <cc:Agent>
      <dc:title>Matplotlib v3.7.0, https://matplotlib.org/</dc:title>
     </cc:Agent>
    </dc:creator>
   </cc:Work>
  </rdf:RDF>
 </metadata>
 <defs>
  <style type="text/css">*{stroke-linejoin: round; stroke-linecap: butt}</style>
 </defs>
 <g id="figure_1">
  <g id="patch_1">
   <path d="M 0 451.428281 
L 659.87875 451.428281 
L 659.87875 0 
L 0 0 
L 0 451.428281 
z
" style="fill: none"/>
  </g>
  <g id="axes_1">
   <g id="patch_2">
    <path d="M 59.05 289.718906 
L 449.65 289.718906 
L 449.65 12.518906 
L 59.05 12.518906 
L 59.05 289.718906 
z
" style="fill: none"/>
   </g>
   <g id="PathCollection_1">
    <defs>
     <path id="m9c9b8db2b3" d="M 0 5 
C 1.326016 5 2.597899 4.473168 3.535534 3.535534 
C 4.473168 2.597899 5 1.326016 5 0 
C 5 -1.326016 4.473168 -2.597899 3.535534 -3.535534 
C 2.597899 -4.473168 1.326016 -5 0 -5 
C -1.326016 -5 -2.597899 -4.473168 -3.535534 -3.535534 
C -4.473168 -2.597899 -5 -1.326016 -5 0 
C -5 1.326016 -4.473168 2.597899 -3.535534 3.535534 
C -2.597899 4.473168 -1.326016 5 0 5 
z
" style="stroke: #ffffff; stroke-width: 0.8"/>
    </defs>
    <g clip-path="url(#pf8b9eaedbf)">
     <use xlink:href="#m9c9b8db2b3" x="117.776573" y="146.854291" style="fill: #2ca02c; stroke: #ffffff; stroke-width: 0.8"/>
     <use xlink:href="#m9c9b8db2b3" x="254.35" y="151.700445" style="fill: #2ca02c; stroke: #ffffff; stroke-width: 0.8"/>
     <use xlink:href="#m9c9b8db2b3" x="390.923427" y="193.377368" style="fill: #2ca02c; stroke: #ffffff; stroke-width: 0.8"/>
    </g>
   </g>
   <g id="matplotlib.axis_1">
    <g id="xtick_1">
     <g id="text_1">
      <!-- Llama-2-7b-chat-hf -->
      <g transform="translate(114.865011 430.550156) rotate(-90) scale(0.14 -0.14)">
       <defs>
        <path id="DejaVuSans-4c" d="M 628 4666 
L 1259 4666 
L 1259 531 
L 3531 531 
L 3531 0 
L 628 0 
L 628 4666 
z
" transform="scale(0.015625)"/>
        <path id="DejaVuSans-6c" d="M 603 4863 
L 1178 4863 
L 1178 0 
L 603 0 
L 603 4863 
z
" transform="scale(0.015625)"/>
        <path id="DejaVuSans-61" d="M 2194 1759 
Q 1497 1759 1228 1600 
Q 959 1441 959 1056 
Q 959 750 1161 570 
Q 1363 391 1709 391 
Q 2188 391 2477 730 
Q 2766 1069 2766 1631 
L 2766 1759 
L 2194 1759 
z
M 3341 1997 
L 3341 0 
L 2766 0 
L 2766 531 
Q 2569 213 2275 61 
Q 1981 -91 1556 -91 
Q 1019 -91 701 211 
Q 384 513 384 1019 
Q 384 1609 779 1909 
Q 1175 2209 1959 2209 
L 2766 2209 
L 2766 2266 
Q 2766 2663 2505 2880 
Q 2244 3097 1772 3097 
Q 1472 3097 1187 3025 
Q 903 2953 641 2809 
L 641 3341 
Q 956 3463 1253 3523 
Q 1550 3584 1831 3584 
Q 2591 3584 2966 3190 
Q 3341 2797 3341 1997 
z
" transform="scale(0.015625)"/>
        <path id="DejaVuSans-6d" d="M 3328 2828 
Q 3544 3216 3844 3400 
Q 4144 3584 4550 3584 
Q 5097 3584 5394 3201 
Q 5691 2819 5691 2113 
L 5691 0 
L 5113 0 
L 5113 2094 
Q 5113 2597 4934 2840 
Q 4756 3084 4391 3084 
Q 3944 3084 3684 2787 
Q 3425 2491 3425 1978 
L 3425 0 
L 2847 0 
L 2847 2094 
Q 2847 2600 2669 2842 
Q 2491 3084 2119 3084 
Q 1678 3084 1418 2786 
Q 1159 2488 1159 1978 
L 1159 0 
L 581 0 
L 581 3500 
L 1159 3500 
L 1159 2956 
Q 1356 3278 1631 3431 
Q 1906 3584 2284 3584 
Q 2666 3584 2933 3390 
Q 3200 3197 3328 2828 
z
" transform="scale(0.015625)"/>
        <path id="DejaVuSans-2d" d="M 313 2009 
L 1997 2009 
L 1997 1497 
L 313 1497 
L 313 2009 
z
" transform="scale(0.015625)"/>
        <path id="DejaVuSans-32" d="M 1228 531 
L 3431 531 
L 3431 0 
L 469 0 
L 469 531 
Q 828 903 1448 1529 
Q 2069 2156 2228 2338 
Q 2531 2678 2651 2914 
Q 2772 3150 2772 3378 
Q 2772 3750 2511 3984 
Q 2250 4219 1831 4219 
Q 1534 4219 1204 4116 
Q 875 4013 500 3803 
L 500 4441 
Q 881 4594 1212 4672 
Q 1544 4750 1819 4750 
Q 2544 4750 2975 4387 
Q 3406 4025 3406 3419 
Q 3406 3131 3298 2873 
Q 3191 2616 2906 2266 
Q 2828 2175 2409 1742 
Q 1991 1309 1228 531 
z
" transform="scale(0.015625)"/>
        <path id="DejaVuSans-37" d="M 525 4666 
L 3525 4666 
L 3525 4397 
L 1831 0 
L 1172 0 
L 2766 4134 
L 525 4134 
L 525 4666 
z
" transform="scale(0.015625)"/>
        <path id="DejaVuSans-62" d="M 3116 1747 
Q 3116 2381 2855 2742 
Q 2594 3103 2138 3103 
Q 1681 3103 1420 2742 
Q 1159 2381 1159 1747 
Q 1159 1113 1420 752 
Q 1681 391 2138 391 
Q 2594 391 2855 752 
Q 3116 1113 3116 1747 
z
M 1159 2969 
Q 1341 3281 1617 3432 
Q 1894 3584 2278 3584 
Q 2916 3584 3314 3078 
Q 3713 2572 3713 1747 
Q 3713 922 3314 415 
Q 2916 -91 2278 -91 
Q 1894 -91 1617 61 
Q 1341 213 1159 525 
L 1159 0 
L 581 0 
L 581 4863 
L 1159 4863 
L 1159 2969 
z
" transform="scale(0.015625)"/>
        <path id="DejaVuSans-63" d="M 3122 3366 
L 3122 2828 
Q 2878 2963 2633 3030 
Q 2388 3097 2138 3097 
Q 1578 3097 1268 2742 
Q 959 2388 959 1747 
Q 959 1106 1268 751 
Q 1578 397 2138 397 
Q 2388 397 2633 464 
Q 2878 531 3122 666 
L 3122 134 
Q 2881 22 2623 -34 
Q 2366 -91 2075 -91 
Q 1284 -91 818 406 
Q 353 903 353 1747 
Q 353 2603 823 3093 
Q 1294 3584 2113 3584 
Q 2378 3584 2631 3529 
Q 2884 3475 3122 3366 
z
" transform="scale(0.015625)"/>
        <path id="DejaVuSans-68" d="M 3513 2113 
L 3513 0 
L 2938 0 
L 2938 2094 
Q 2938 2591 2744 2837 
Q 2550 3084 2163 3084 
Q 1697 3084 1428 2787 
Q 1159 2491 1159 1978 
L 1159 0 
L 581 0 
L 581 4863 
L 1159 4863 
L 1159 2956 
Q 1366 3272 1645 3428 
Q 1925 3584 2291 3584 
Q 2894 3584 3203 3211 
Q 3513 2838 3513 2113 
z
" transform="scale(0.015625)"/>
        <path id="DejaVuSans-74" d="M 1172 4494 
L 1172 3500 
L 2356 3500 
L 2356 3053 
L 1172 3053 
L 1172 1153 
Q 1172 725 1289 603 
Q 1406 481 1766 481 
L 2356 481 
L 2356 0 
L 1766 0 
Q 1100 0 847 248 
Q 594 497 594 1153 
L 594 3053 
L 172 3053 
L 172 3500 
L 594 3500 
L 594 4494 
L 1172 4494 
z
" transform="scale(0.015625)"/>
        <path id="DejaVuSans-66" d="M 2375 4863 
L 2375 4384 
L 1825 4384 
Q 1516 4384 1395 4259 
Q 1275 4134 1275 3809 
L 1275 3500 
L 2222 3500 
L 2222 3053 
L 1275 3053 
L 1275 0 
L 697 0 
L 697 3053 
L 147 3053 
L 147 3500 
L 697 3500 
L 697 3744 
Q 697 4328 969 4595 
Q 1241 4863 1831 4863 
L 2375 4863 
z
" transform="scale(0.015625)"/>
       </defs>
       <use xlink:href="#DejaVuSans-4c"/>
       <use xlink:href="#DejaVuSans-6c" x="55.712891"/>
       <use xlink:href="#DejaVuSans-61" x="83.496094"/>
       <use xlink:href="#DejaVuSans-6d" x="144.775391"/>
       <use xlink:href="#DejaVuSans-61" x="242.1875"/>
       <use xlink:href="#DejaVuSans-2d" x="303.466797"/>
       <use xlink:href="#DejaVuSans-32" x="339.550781"/>
       <use xlink:href="#DejaVuSans-2d" x="403.173828"/>
       <use xlink:href="#DejaVuSans-37" x="439.257812"/>
       <use xlink:href="#DejaVuSans-62" x="502.880859"/>
       <use xlink:href="#DejaVuSans-2d" x="566.357422"/>
       <use xlink:href="#DejaVuSans-63" x="602.441406"/>
       <use xlink:href="#DejaVuSans-68" x="657.421875"/>
       <use xlink:href="#DejaVuSans-61" x="720.800781"/>
       <use xlink:href="#DejaVuSans-74" x="782.080078"/>
       <use xlink:href="#DejaVuSans-2d" x="821.289062"/>
       <use xlink:href="#DejaVuSans-68" x="857.373047"/>
       <use xlink:href="#DejaVuSans-66" x="920.751953"/>
      </g>
     </g>
    </g>
    <g id="xtick_2">
     <g id="text_2">
      <!-- Llama-2-7b-hf -->
      <g transform="translate(251.438438 394.861094) rotate(-90) scale(0.14 -0.14)">
       <use xlink:href="#DejaVuSans-4c"/>
       <use xlink:href="#DejaVuSans-6c" x="55.712891"/>
       <use xlink:href="#DejaVuSans-61" x="83.496094"/>
       <use xlink:href="#DejaVuSans-6d" x="144.775391"/>
       <use xlink:href="#DejaVuSans-61" x="242.1875"/>
       <use xlink:href="#DejaVuSans-2d" x="303.466797"/>
       <use xlink:href="#DejaVuSans-32" x="339.550781"/>
       <use xlink:href="#DejaVuSans-2d" x="403.173828"/>
       <use xlink:href="#DejaVuSans-37" x="439.257812"/>
       <use xlink:href="#DejaVuSans-62" x="502.880859"/>
       <use xlink:href="#DejaVuSans-2d" x="566.357422"/>
       <use xlink:href="#DejaVuSans-68" x="602.441406"/>
       <use xlink:href="#DejaVuSans-66" x="665.820312"/>
      </g>
     </g>
    </g>
    <g id="xtick_3">
     <g id="text_3">
      <!-- Meta-Llama-3-8B -->
      <g transform="translate(388.011864 416.539219) rotate(-90) scale(0.14 -0.14)">
       <defs>
        <path id="DejaVuSans-4d" d="M 628 4666 
L 1569 4666 
L 2759 1491 
L 3956 4666 
L 4897 4666 
L 4897 0 
L 4281 0 
L 4281 4097 
L 3078 897 
L 2444 897 
L 1241 4097 
L 1241 0 
L 628 0 
L 628 4666 
z
" transform="scale(0.015625)"/>
        <path id="DejaVuSans-65" d="M 3597 1894 
L 3597 1613 
L 953 1613 
Q 991 1019 1311 708 
Q 1631 397 2203 397 
Q 2534 397 2845 478 
Q 3156 559 3463 722 
L 3463 178 
Q 3153 47 2828 -22 
Q 2503 -91 2169 -91 
Q 1331 -91 842 396 
Q 353 884 353 1716 
Q 353 2575 817 3079 
Q 1281 3584 2069 3584 
Q 2775 3584 3186 3129 
Q 3597 2675 3597 1894 
z
M 3022 2063 
Q 3016 2534 2758 2815 
Q 2500 3097 2075 3097 
Q 1594 3097 1305 2825 
Q 1016 2553 972 2059 
L 3022 2063 
z
" transform="scale(0.015625)"/>
        <path id="DejaVuSans-33" d="M 2597 2516 
Q 3050 2419 3304 2112 
Q 3559 1806 3559 1356 
Q 3559 666 3084 287 
Q 2609 -91 1734 -91 
Q 1441 -91 1130 -33 
Q 819 25 488 141 
L 488 750 
Q 750 597 1062 519 
Q 1375 441 1716 441 
Q 2309 441 2620 675 
Q 2931 909 2931 1356 
Q 2931 1769 2642 2001 
Q 2353 2234 1838 2234 
L 1294 2234 
L 1294 2753 
L 1863 2753 
Q 2328 2753 2575 2939 
Q 2822 3125 2822 3475 
Q 2822 3834 2567 4026 
Q 2313 4219 1838 4219 
Q 1578 4219 1281 4162 
Q 984 4106 628 3988 
L 628 4550 
Q 988 4650 1302 4700 
Q 1616 4750 1894 4750 
Q 2613 4750 3031 4423 
Q 3450 4097 3450 3541 
Q 3450 3153 3228 2886 
Q 3006 2619 2597 2516 
z
" transform="scale(0.015625)"/>
        <path id="DejaVuSans-38" d="M 2034 2216 
Q 1584 2216 1326 1975 
Q 1069 1734 1069 1313 
Q 1069 891 1326 650 
Q 1584 409 2034 409 
Q 2484 409 2743 651 
Q 3003 894 3003 1313 
Q 3003 1734 2745 1975 
Q 2488 2216 2034 2216 
z
M 1403 2484 
Q 997 2584 770 2862 
Q 544 3141 544 3541 
Q 544 4100 942 4425 
Q 1341 4750 2034 4750 
Q 2731 4750 3128 4425 
Q 3525 4100 3525 3541 
Q 3525 3141 3298 2862 
Q 3072 2584 2669 2484 
Q 3125 2378 3379 2068 
Q 3634 1759 3634 1313 
Q 3634 634 3220 271 
Q 2806 -91 2034 -91 
Q 1263 -91 848 271 
Q 434 634 434 1313 
Q 434 1759 690 2068 
Q 947 2378 1403 2484 
z
M 1172 3481 
Q 1172 3119 1398 2916 
Q 1625 2713 2034 2713 
Q 2441 2713 2670 2916 
Q 2900 3119 2900 3481 
Q 2900 3844 2670 4047 
Q 2441 4250 2034 4250 
Q 1625 4250 1398 4047 
Q 1172 3844 1172 3481 
z
" transform="scale(0.015625)"/>
        <path id="DejaVuSans-42" d="M 1259 2228 
L 1259 519 
L 2272 519 
Q 2781 519 3026 730 
Q 3272 941 3272 1375 
Q 3272 1813 3026 2020 
Q 2781 2228 2272 2228 
L 1259 2228 
z
M 1259 4147 
L 1259 2741 
L 2194 2741 
Q 2656 2741 2882 2914 
Q 3109 3088 3109 3444 
Q 3109 3797 2882 3972 
Q 2656 4147 2194 4147 
L 1259 4147 
z
M 628 4666 
L 2241 4666 
Q 2963 4666 3353 4366 
Q 3744 4066 3744 3513 
Q 3744 3084 3544 2831 
Q 3344 2578 2956 2516 
Q 3422 2416 3680 2098 
Q 3938 1781 3938 1306 
Q 3938 681 3513 340 
Q 3088 0 2303 0 
L 628 0 
L 628 4666 
z
" transform="scale(0.015625)"/>
       </defs>
       <use xlink:href="#DejaVuSans-4d"/>
       <use xlink:href="#DejaVuSans-65" x="86.279297"/>
       <use xlink:href="#DejaVuSans-74" x="147.802734"/>
       <use xlink:href="#DejaVuSans-61" x="187.011719"/>
       <use xlink:href="#DejaVuSans-2d" x="248.291016"/>
       <use xlink:href="#DejaVuSans-4c" x="284.375"/>
       <use xlink:href="#DejaVuSans-6c" x="340.087891"/>
       <use xlink:href="#DejaVuSans-61" x="367.871094"/>
       <use xlink:href="#DejaVuSans-6d" x="429.150391"/>
       <use xlink:href="#DejaVuSans-61" x="526.5625"/>
       <use xlink:href="#DejaVuSans-2d" x="587.841797"/>
       <use xlink:href="#DejaVuSans-33" x="623.925781"/>
       <use xlink:href="#DejaVuSans-2d" x="687.548828"/>
       <use xlink:href="#DejaVuSans-38" x="723.632812"/>
       <use xlink:href="#DejaVuSans-42" x="787.255859"/>
      </g>
     </g>
    </g>
    <g id="text_4">
     <!-- Model -->
     <g transform="translate(239.336719 442.148594) scale(0.1 -0.1)">
      <defs>
       <path id="DejaVuSans-6f" d="M 1959 3097 
Q 1497 3097 1228 2736 
Q 959 2375 959 1747 
Q 959 1119 1226 758 
Q 1494 397 1959 397 
Q 2419 397 2687 759 
Q 2956 1122 2956 1747 
Q 2956 2369 2687 2733 
Q 2419 3097 1959 3097 
z
M 1959 3584 
Q 2709 3584 3137 3096 
Q 3566 2609 3566 1747 
Q 3566 888 3137 398 
Q 2709 -91 1959 -91 
Q 1206 -91 779 398 
Q 353 888 353 1747 
Q 353 2609 779 3096 
Q 1206 3584 1959 3584 
z
" transform="scale(0.015625)"/>
       <path id="DejaVuSans-64" d="M 2906 2969 
L 2906 4863 
L 3481 4863 
L 3481 0 
L 2906 0 
L 2906 525 
Q 2725 213 2448 61 
Q 2172 -91 1784 -91 
Q 1150 -91 751 415 
Q 353 922 353 1747 
Q 353 2572 751 3078 
Q 1150 3584 1784 3584 
Q 2172 3584 2448 3432 
Q 2725 3281 2906 2969 
z
M 947 1747 
Q 947 1113 1208 752 
Q 1469 391 1925 391 
Q 2381 391 2643 752 
Q 2906 1113 2906 1747 
Q 2906 2381 2643 2742 
Q 2381 3103 1925 3103 
Q 1469 3103 1208 2742 
Q 947 2381 947 1747 
z
" transform="scale(0.015625)"/>
      </defs>
      <use xlink:href="#DejaVuSans-4d"/>
      <use xlink:href="#DejaVuSans-6f" x="86.279297"/>
      <use xlink:href="#DejaVuSans-64" x="147.460938"/>
      <use xlink:href="#DejaVuSans-65" x="210.9375"/>
      <use xlink:href="#DejaVuSans-6c" x="272.460938"/>
     </g>
    </g>
   </g>
   <g id="matplotlib.axis_2">
    <g id="ytick_1">
     <g id="line2d_1">
      <path d="M 59.05 289.718906 
L 449.65 289.718906 
" clip-path="url(#pf8b9eaedbf)" style="fill: none; stroke: #b0b0b0; stroke-width: 0.8; stroke-linecap: square"/>
     </g>
     <g id="text_5">
      <!-- 0.15 -->
      <g transform="translate(20.878125 295.037812) scale(0.14 -0.14)">
       <defs>
        <path id="DejaVuSans-30" d="M 2034 4250 
Q 1547 4250 1301 3770 
Q 1056 3291 1056 2328 
Q 1056 1369 1301 889 
Q 1547 409 2034 409 
Q 2525 409 2770 889 
Q 3016 1369 3016 2328 
Q 3016 3291 2770 3770 
Q 2525 4250 2034 4250 
z
M 2034 4750 
Q 2819 4750 3233 4129 
Q 3647 3509 3647 2328 
Q 3647 1150 3233 529 
Q 2819 -91 2034 -91 
Q 1250 -91 836 529 
Q 422 1150 422 2328 
Q 422 3509 836 4129 
Q 1250 4750 2034 4750 
z
" transform="scale(0.015625)"/>
        <path id="DejaVuSans-2e" d="M 684 794 
L 1344 794 
L 1344 0 
L 684 0 
L 684 794 
z
" transform="scale(0.015625)"/>
        <path id="DejaVuSans-31" d="M 794 531 
L 1825 531 
L 1825 4091 
L 703 3866 
L 703 4441 
L 1819 4666 
L 2450 4666 
L 2450 531 
L 3481 531 
L 3481 0 
L 794 0 
L 794 531 
z
" transform="scale(0.015625)"/>
        <path id="DejaVuSans-35" d="M 691 4666 
L 3169 4666 
L 3169 4134 
L 1269 4134 
L 1269 2991 
Q 1406 3038 1543 3061 
Q 1681 3084 1819 3084 
Q 2600 3084 3056 2656 
Q 3513 2228 3513 1497 
Q 3513 744 3044 326 
Q 2575 -91 1722 -91 
Q 1428 -91 1123 -41 
Q 819 9 494 109 
L 494 744 
Q 775 591 1075 516 
Q 1375 441 1709 441 
Q 2250 441 2565 725 
Q 2881 1009 2881 1497 
Q 2881 1984 2565 2268 
Q 2250 2553 1709 2553 
Q 1456 2553 1204 2497 
Q 953 2441 691 2322 
L 691 4666 
z
" transform="scale(0.015625)"/>
       </defs>
       <use xlink:href="#DejaVuSans-30"/>
       <use xlink:href="#DejaVuSans-2e" x="63.623047"/>
       <use xlink:href="#DejaVuSans-31" x="95.410156"/>
       <use xlink:href="#DejaVuSans-35" x="159.033203"/>
      </g>
     </g>
    </g>
    <g id="ytick_2">
     <g id="line2d_2">
      <path d="M 59.05 234.278906 
L 449.65 234.278906 
" clip-path="url(#pf8b9eaedbf)" style="fill: none; stroke: #b0b0b0; stroke-width: 0.8; stroke-linecap: square"/>
     </g>
     <g id="text_6">
      <!-- 0.20 -->
      <g transform="translate(20.878125 239.597812) scale(0.14 -0.14)">
       <use xlink:href="#DejaVuSans-30"/>
       <use xlink:href="#DejaVuSans-2e" x="63.623047"/>
       <use xlink:href="#DejaVuSans-32" x="95.410156"/>
       <use xlink:href="#DejaVuSans-30" x="159.033203"/>
      </g>
     </g>
    </g>
    <g id="ytick_3">
     <g id="line2d_3">
      <path d="M 59.05 178.838906 
L 449.65 178.838906 
" clip-path="url(#pf8b9eaedbf)" style="fill: none; stroke: #b0b0b0; stroke-width: 0.8; stroke-linecap: square"/>
     </g>
     <g id="text_7">
      <!-- 0.25 -->
      <g transform="translate(20.878125 184.157812) scale(0.14 -0.14)">
       <use xlink:href="#DejaVuSans-30"/>
       <use xlink:href="#DejaVuSans-2e" x="63.623047"/>
       <use xlink:href="#DejaVuSans-32" x="95.410156"/>
       <use xlink:href="#DejaVuSans-35" x="159.033203"/>
      </g>
     </g>
    </g>
    <g id="ytick_4">
     <g id="line2d_4">
      <path d="M 59.05 123.398906 
L 449.65 123.398906 
" clip-path="url(#pf8b9eaedbf)" style="fill: none; stroke: #b0b0b0; stroke-width: 0.8; stroke-linecap: square"/>
     </g>
     <g id="text_8">
      <!-- 0.30 -->
      <g transform="translate(20.878125 128.717812) scale(0.14 -0.14)">
       <use xlink:href="#DejaVuSans-30"/>
       <use xlink:href="#DejaVuSans-2e" x="63.623047"/>
       <use xlink:href="#DejaVuSans-33" x="95.410156"/>
       <use xlink:href="#DejaVuSans-30" x="159.033203"/>
      </g>
     </g>
    </g>
    <g id="ytick_5">
     <g id="line2d_5">
      <path d="M 59.05 67.958906 
L 449.65 67.958906 
" clip-path="url(#pf8b9eaedbf)" style="fill: none; stroke: #b0b0b0; stroke-width: 0.8; stroke-linecap: square"/>
     </g>
     <g id="text_9">
      <!-- 0.35 -->
      <g transform="translate(20.878125 73.277812) scale(0.14 -0.14)">
       <use xlink:href="#DejaVuSans-30"/>
       <use xlink:href="#DejaVuSans-2e" x="63.623047"/>
       <use xlink:href="#DejaVuSans-33" x="95.410156"/>
       <use xlink:href="#DejaVuSans-35" x="159.033203"/>
      </g>
     </g>
    </g>
    <g id="ytick_6">
     <g id="line2d_6">
      <path d="M 59.05 12.518906 
L 449.65 12.518906 
" clip-path="url(#pf8b9eaedbf)" style="fill: none; stroke: #b0b0b0; stroke-width: 0.8; stroke-linecap: square"/>
     </g>
     <g id="text_10">
      <!-- 0.40 -->
      <g transform="translate(20.878125 17.837812) scale(0.14 -0.14)">
       <defs>
        <path id="DejaVuSans-34" d="M 2419 4116 
L 825 1625 
L 2419 1625 
L 2419 4116 
z
M 2253 4666 
L 3047 4666 
L 3047 1625 
L 3713 1625 
L 3713 1100 
L 3047 1100 
L 3047 0 
L 2419 0 
L 2419 1100 
L 313 1100 
L 313 1709 
L 2253 4666 
z
" transform="scale(0.015625)"/>
       </defs>
       <use xlink:href="#DejaVuSans-30"/>
       <use xlink:href="#DejaVuSans-2e" x="63.623047"/>
       <use xlink:href="#DejaVuSans-34" x="95.410156"/>
       <use xlink:href="#DejaVuSans-30" x="159.033203"/>
      </g>
     </g>
    </g>
    <g id="text_11">
     <!-- MMLU Top 1 Accuracy -->
     <g transform="translate(14.798438 205.156406) rotate(-90) scale(0.1 -0.1)">
      <defs>
       <path id="DejaVuSans-55" d="M 556 4666 
L 1191 4666 
L 1191 1831 
Q 1191 1081 1462 751 
Q 1734 422 2344 422 
Q 2950 422 3222 751 
Q 3494 1081 3494 1831 
L 3494 4666 
L 4128 4666 
L 4128 1753 
Q 4128 841 3676 375 
Q 3225 -91 2344 -91 
Q 1459 -91 1007 375 
Q 556 841 556 1753 
L 556 4666 
z
" transform="scale(0.015625)"/>
       <path id="DejaVuSans-20" transform="scale(0.015625)"/>
       <path id="DejaVuSans-54" d="M -19 4666 
L 3928 4666 
L 3928 4134 
L 2272 4134 
L 2272 0 
L 1638 0 
L 1638 4134 
L -19 4134 
L -19 4666 
z
" transform="scale(0.015625)"/>
       <path id="DejaVuSans-70" d="M 1159 525 
L 1159 -1331 
L 581 -1331 
L 581 3500 
L 1159 3500 
L 1159 2969 
Q 1341 3281 1617 3432 
Q 1894 3584 2278 3584 
Q 2916 3584 3314 3078 
Q 3713 2572 3713 1747 
Q 3713 922 3314 415 
Q 2916 -91 2278 -91 
Q 1894 -91 1617 61 
Q 1341 213 1159 525 
z
M 3116 1747 
Q 3116 2381 2855 2742 
Q 2594 3103 2138 3103 
Q 1681 3103 1420 2742 
Q 1159 2381 1159 1747 
Q 1159 1113 1420 752 
Q 1681 391 2138 391 
Q 2594 391 2855 752 
Q 3116 1113 3116 1747 
z
" transform="scale(0.015625)"/>
       <path id="DejaVuSans-41" d="M 2188 4044 
L 1331 1722 
L 3047 1722 
L 2188 4044 
z
M 1831 4666 
L 2547 4666 
L 4325 0 
L 3669 0 
L 3244 1197 
L 1141 1197 
L 716 0 
L 50 0 
L 1831 4666 
z
" transform="scale(0.015625)"/>
       <path id="DejaVuSans-75" d="M 544 1381 
L 544 3500 
L 1119 3500 
L 1119 1403 
Q 1119 906 1312 657 
Q 1506 409 1894 409 
Q 2359 409 2629 706 
Q 2900 1003 2900 1516 
L 2900 3500 
L 3475 3500 
L 3475 0 
L 2900 0 
L 2900 538 
Q 2691 219 2414 64 
Q 2138 -91 1772 -91 
Q 1169 -91 856 284 
Q 544 659 544 1381 
z
M 1991 3584 
L 1991 3584 
z
" transform="scale(0.015625)"/>
       <path id="DejaVuSans-72" d="M 2631 2963 
Q 2534 3019 2420 3045 
Q 2306 3072 2169 3072 
Q 1681 3072 1420 2755 
Q 1159 2438 1159 1844 
L 1159 0 
L 581 0 
L 581 3500 
L 1159 3500 
L 1159 2956 
Q 1341 3275 1631 3429 
Q 1922 3584 2338 3584 
Q 2397 3584 2469 3576 
Q 2541 3569 2628 3553 
L 2631 2963 
z
" transform="scale(0.015625)"/>
       <path id="DejaVuSans-79" d="M 2059 -325 
Q 1816 -950 1584 -1140 
Q 1353 -1331 966 -1331 
L 506 -1331 
L 506 -850 
L 844 -850 
Q 1081 -850 1212 -737 
Q 1344 -625 1503 -206 
L 1606 56 
L 191 3500 
L 800 3500 
L 1894 763 
L 2988 3500 
L 3597 3500 
L 2059 -325 
z
" transform="scale(0.015625)"/>
      </defs>
      <use xlink:href="#DejaVuSans-4d"/>
      <use xlink:href="#DejaVuSans-4d" x="86.279297"/>
      <use xlink:href="#DejaVuSans-4c" x="172.558594"/>
      <use xlink:href="#DejaVuSans-55" x="223.271484"/>
      <use xlink:href="#DejaVuSans-20" x="296.464844"/>
      <use xlink:href="#DejaVuSans-54" x="328.251953"/>
      <use xlink:href="#DejaVuSans-6f" x="372.335938"/>
      <use xlink:href="#DejaVuSans-70" x="433.517578"/>
      <use xlink:href="#DejaVuSans-20" x="496.994141"/>
      <use xlink:href="#DejaVuSans-31" x="528.78125"/>
      <use xlink:href="#DejaVuSans-20" x="592.404297"/>
      <use xlink:href="#DejaVuSans-41" x="624.191406"/>
      <use xlink:href="#DejaVuSans-63" x="690.849609"/>
      <use xlink:href="#DejaVuSans-63" x="745.830078"/>
      <use xlink:href="#DejaVuSans-75" x="800.810547"/>
      <use xlink:href="#DejaVuSans-72" x="864.189453"/>
      <use xlink:href="#DejaVuSans-61" x="905.302734"/>
      <use xlink:href="#DejaVuSans-63" x="966.582031"/>
      <use xlink:href="#DejaVuSans-79" x="1021.5625"/>
     </g>
    </g>
   </g>
   <g id="patch_3">
    <path d="M 76.804545 165.754291 
L 158.748601 165.754291 
L 158.748601 153.154291 
L 76.804545 153.154291 
L 76.804545 165.754291 
z
" clip-path="url(#pf8b9eaedbf)" style="fill: #3274a1; stroke: #3f3f3f; stroke-linejoin: miter"/>
   </g>
   <g id="line2d_7">
    <path d="M 117.776573 165.754291 
L 117.776573 191.438906 
" clip-path="url(#pf8b9eaedbf)" style="fill: none; stroke: #3f3f3f"/>
   </g>
   <g id="line2d_8">
    <path d="M 117.776573 153.154291 
L 117.776573 143.946599 
" clip-path="url(#pf8b9eaedbf)" style="fill: none; stroke: #3f3f3f"/>
   </g>
   <g id="line2d_9">
    <path d="M 97.290559 191.438906 
L 138.262587 191.438906 
" clip-path="url(#pf8b9eaedbf)" style="fill: none; stroke: #3f3f3f; stroke-linecap: square"/>
   </g>
   <g id="line2d_10">
    <path d="M 97.290559 143.946599 
L 138.262587 143.946599 
" clip-path="url(#pf8b9eaedbf)" style="fill: none; stroke: #3f3f3f; stroke-linecap: square"/>
   </g>
   <g id="line2d_11"/>
   <g id="patch_4">
    <path d="M 213.377972 179.565829 
L 295.322028 179.565829 
L 295.322028 164.058137 
L 213.377972 164.058137 
L 213.377972 179.565829 
z
" clip-path="url(#pf8b9eaedbf)" style="fill: #3274a1; stroke: #3f3f3f; stroke-linejoin: miter"/>
   </g>
   <g id="line2d_12">
    <path d="M 254.35 179.565829 
L 254.35 205.977368 
" clip-path="url(#pf8b9eaedbf)" style="fill: none; stroke: #3f3f3f"/>
   </g>
   <g id="line2d_13">
    <path d="M 254.35 164.058137 
L 254.35 151.700445 
" clip-path="url(#pf8b9eaedbf)" style="fill: none; stroke: #3f3f3f"/>
   </g>
   <g id="line2d_14">
    <path d="M 233.863986 205.977368 
L 274.836014 205.977368 
" clip-path="url(#pf8b9eaedbf)" style="fill: none; stroke: #3f3f3f; stroke-linecap: square"/>
   </g>
   <g id="line2d_15">
    <path d="M 233.863986 151.700445 
L 274.836014 151.700445 
" clip-path="url(#pf8b9eaedbf)" style="fill: none; stroke: #3f3f3f; stroke-linecap: square"/>
   </g>
   <g id="line2d_16"/>
   <g id="patch_5">
    <path d="M 349.951399 166.238906 
L 431.895455 166.238906 
L 431.895455 143.704291 
L 349.951399 143.704291 
L 349.951399 166.238906 
z
" clip-path="url(#pf8b9eaedbf)" style="fill: #3274a1; stroke: #3f3f3f; stroke-linejoin: miter"/>
   </g>
   <g id="line2d_17">
    <path d="M 390.923427 166.238906 
L 390.923427 180.777368 
" clip-path="url(#pf8b9eaedbf)" style="fill: none; stroke: #3f3f3f"/>
   </g>
   <g id="line2d_18">
    <path d="M 390.923427 143.704291 
L 390.923427 106.146599 
" clip-path="url(#pf8b9eaedbf)" style="fill: none; stroke: #3f3f3f"/>
   </g>
   <g id="line2d_19">
    <path d="M 370.437413 180.777368 
L 411.409441 180.777368 
" clip-path="url(#pf8b9eaedbf)" style="fill: none; stroke: #3f3f3f; stroke-linecap: square"/>
   </g>
   <g id="line2d_20">
    <path d="M 370.437413 106.146599 
L 411.409441 106.146599 
" clip-path="url(#pf8b9eaedbf)" style="fill: none; stroke: #3f3f3f; stroke-linecap: square"/>
   </g>
   <g id="line2d_21"/>
   <g id="line2d_22">
    <path d="M 76.804545 158.000445 
L 158.748601 158.000445 
" clip-path="url(#pf8b9eaedbf)" style="fill: none; stroke: #3f3f3f"/>
   </g>
   <g id="line2d_23">
    <path d="M 213.377972 170.115829 
L 295.322028 170.115829 
" clip-path="url(#pf8b9eaedbf)" style="fill: none; stroke: #3f3f3f"/>
   </g>
   <g id="line2d_24">
    <path d="M 349.951399 155.577368 
L 431.895455 155.577368 
" clip-path="url(#pf8b9eaedbf)" style="fill: none; stroke: #3f3f3f"/>
   </g>
   <g id="patch_6">
    <path d="M 59.05 289.718906 
L 449.65 289.718906 
" style="fill: none; stroke: #000000; stroke-width: 0.8; stroke-linejoin: miter; stroke-linecap: square"/>
   </g>
   <g id="PathCollection_2">
    <defs>
     <path id="m3bcfca7fcf" d="M 0 2.5 
C 0.663008 2.5 1.29895 2.236584 1.767767 1.767767 
C 2.236584 1.29895 2.5 0.663008 2.5 0 
C 2.5 -0.663008 2.236584 -1.29895 1.767767 -1.767767 
C 1.29895 -2.236584 0.663008 -2.5 0 -2.5 
C -0.663008 -2.5 -1.29895 -2.236584 -1.767767 -1.767767 
C -2.236584 -1.29895 -2.5 -0.663008 -2.5 0 
C -2.5 0.663008 -2.236584 1.29895 -1.767767 1.767767 
C -1.29895 2.236584 -0.663008 2.5 0 2.5 
z
"/>
    </defs>
    <g clip-path="url(#pf8b9eaedbf)">
     <use xlink:href="#m3bcfca7fcf" x="124.104204" y="143.946599" style="fill: #ff7f0e"/>
     <use xlink:href="#m3bcfca7fcf" x="118.740908" y="160.423522" style="fill: #ff7f0e"/>
     <use xlink:href="#m3bcfca7fcf" x="111.925899" y="150.731214" style="fill: #ff7f0e"/>
     <use xlink:href="#m3bcfca7fcf" x="117.49456" y="163.331214" style="fill: #ff7f0e"/>
     <use xlink:href="#m3bcfca7fcf" x="106.848019" y="165.269675" style="fill: #ff7f0e"/>
     <use xlink:href="#m3bcfca7fcf" x="122.70996" y="149.761983" style="fill: #ff7f0e"/>
     <use xlink:href="#m3bcfca7fcf" x="124.692381" y="165.269675" style="fill: #ff7f0e"/>
     <use xlink:href="#m3bcfca7fcf" x="112.130149" y="155.577368" style="fill: #ff7f0e"/>
     <use xlink:href="#m3bcfca7fcf" x="117.304314" y="149.761983" style="fill: #ff7f0e"/>
     <use xlink:href="#m3bcfca7fcf" x="126.713813" y="151.700445" style="fill: #ff7f0e"/>
     <use xlink:href="#m3bcfca7fcf" x="108.213592" y="159.454291" style="fill: #ff7f0e"/>
     <use xlink:href="#m3bcfca7fcf" x="124.180484" y="191.438906" style="fill: #ff7f0e"/>
     <use xlink:href="#m3bcfca7fcf" x="130.724773" y="153.638906" style="fill: #ff7f0e"/>
     <use xlink:href="#m3bcfca7fcf" x="130.290622" y="155.577368" style="fill: #ff7f0e"/>
     <use xlink:href="#m3bcfca7fcf" x="118.710018" y="153.638906" style="fill: #ff7f0e"/>
     <use xlink:href="#m3bcfca7fcf" x="115.529261" y="156.546599" style="fill: #ff7f0e"/>
     <use xlink:href="#m3bcfca7fcf" x="109.497769" y="154.608137" style="fill: #ff7f0e"/>
     <use xlink:href="#m3bcfca7fcf" x="106.237654" y="149.761983" style="fill: #ff7f0e"/>
     <use xlink:href="#m3bcfca7fcf" x="113.676184" y="180.777368" style="fill: #ff7f0e"/>
     <use xlink:href="#m3bcfca7fcf" x="107.91476" y="170.115829" style="fill: #ff7f0e"/>
     <use xlink:href="#m3bcfca7fcf" x="114.960444" y="170.115829" style="fill: #ff7f0e"/>
     <use xlink:href="#m3bcfca7fcf" x="111.075072" y="180.777368" style="fill: #ff7f0e"/>
     <use xlink:href="#m3bcfca7fcf" x="123.404934" y="167.208137" style="fill: #ff7f0e"/>
     <use xlink:href="#m3bcfca7fcf" x="122.079771" y="165.269675" style="fill: #ff7f0e"/>
    </g>
   </g>
   <g id="PathCollection_3">
    <g clip-path="url(#pf8b9eaedbf)">
     <use xlink:href="#m3bcfca7fcf" x="265.989" y="164.300445" style="fill: #ff7f0e"/>
     <use xlink:href="#m3bcfca7fcf" x="252.511924" y="159.454291" style="fill: #ff7f0e"/>
     <use xlink:href="#m3bcfca7fcf" x="246.549001" y="161.392752" style="fill: #ff7f0e"/>
     <use xlink:href="#m3bcfca7fcf" x="244.831112" y="151.700445" style="fill: #ff7f0e"/>
     <use xlink:href="#m3bcfca7fcf" x="250.263742" y="166.238906" style="fill: #ff7f0e"/>
     <use xlink:href="#m3bcfca7fcf" x="256.667461" y="163.331214" style="fill: #ff7f0e"/>
     <use xlink:href="#m3bcfca7fcf" x="253.095079" y="177.869675" style="fill: #ff7f0e"/>
     <use xlink:href="#m3bcfca7fcf" x="249.988966" y="161.392752" style="fill: #ff7f0e"/>
     <use xlink:href="#m3bcfca7fcf" x="265.420541" y="166.238906" style="fill: #ff7f0e"/>
     <use xlink:href="#m3bcfca7fcf" x="242.951652" y="163.331214" style="fill: #ff7f0e"/>
     <use xlink:href="#m3bcfca7fcf" x="240.878688" y="172.054291" style="fill: #ff7f0e"/>
     <use xlink:href="#m3bcfca7fcf" x="263.779586" y="203.069675" style="fill: #ff7f0e"/>
     <use xlink:href="#m3bcfca7fcf" x="257.919968" y="165.269675" style="fill: #ff7f0e"/>
     <use xlink:href="#m3bcfca7fcf" x="256.679724" y="175.931214" style="fill: #ff7f0e"/>
     <use xlink:href="#m3bcfca7fcf" x="248.375824" y="172.054291" style="fill: #ff7f0e"/>
     <use xlink:href="#m3bcfca7fcf" x="242.415289" y="169.146599" style="fill: #ff7f0e"/>
     <use xlink:href="#m3bcfca7fcf" x="246.471885" y="168.177368" style="fill: #ff7f0e"/>
     <use xlink:href="#m3bcfca7fcf" x="263.566312" y="199.192752" style="fill: #ff7f0e"/>
     <use xlink:href="#m3bcfca7fcf" x="263.315441" y="190.469675" style="fill: #ff7f0e"/>
     <use xlink:href="#m3bcfca7fcf" x="251.362873" y="171.08506" style="fill: #ff7f0e"/>
     <use xlink:href="#m3bcfca7fcf" x="266.260984" y="181.746599" style="fill: #ff7f0e"/>
     <use xlink:href="#m3bcfca7fcf" x="256.255709" y="205.977368" style="fill: #ff7f0e"/>
     <use xlink:href="#m3bcfca7fcf" x="258.801337" y="178.838906" style="fill: #ff7f0e"/>
     <use xlink:href="#m3bcfca7fcf" x="261.532246" y="198.223522" style="fill: #ff7f0e"/>
    </g>
   </g>
   <g id="PathCollection_4">
    <g clip-path="url(#pf8b9eaedbf)">
     <use xlink:href="#m3bcfca7fcf" x="388.678624" y="153.638906" style="fill: #ff7f0e"/>
     <use xlink:href="#m3bcfca7fcf" x="396.511354" y="176.900445" style="fill: #ff7f0e"/>
     <use xlink:href="#m3bcfca7fcf" x="383.897194" y="147.823522" style="fill: #ff7f0e"/>
     <use xlink:href="#m3bcfca7fcf" x="388.933269" y="137.161983" style="fill: #ff7f0e"/>
     <use xlink:href="#m3bcfca7fcf" x="404.260335" y="169.146599" style="fill: #ff7f0e"/>
     <use xlink:href="#m3bcfca7fcf" x="394.630804" y="133.28506" style="fill: #ff7f0e"/>
     <use xlink:href="#m3bcfca7fcf" x="403.203806" y="151.700445" style="fill: #ff7f0e"/>
     <use xlink:href="#m3bcfca7fcf" x="390.792652" y="155.577368" style="fill: #ff7f0e"/>
     <use xlink:href="#m3bcfca7fcf" x="384.842818" y="131.346599" style="fill: #ff7f0e"/>
     <use xlink:href="#m3bcfca7fcf" x="395.818535" y="165.269675" style="fill: #ff7f0e"/>
     <use xlink:href="#m3bcfca7fcf" x="397.728636" y="149.761983" style="fill: #ff7f0e"/>
     <use xlink:href="#m3bcfca7fcf" x="380.756666" y="162.361983" style="fill: #ff7f0e"/>
     <use xlink:href="#m3bcfca7fcf" x="381.069022" y="115.838906" style="fill: #ff7f0e"/>
     <use xlink:href="#m3bcfca7fcf" x="379.963854" y="124.561983" style="fill: #ff7f0e"/>
     <use xlink:href="#m3bcfca7fcf" x="380.040794" y="170.115829" style="fill: #ff7f0e"/>
     <use xlink:href="#m3bcfca7fcf" x="384.098133" y="165.269675" style="fill: #ff7f0e"/>
     <use xlink:href="#m3bcfca7fcf" x="379.286435" y="106.146599" style="fill: #ff7f0e"/>
     <use xlink:href="#m3bcfca7fcf" x="397.175833" y="161.392752" style="fill: #ff7f0e"/>
     <use xlink:href="#m3bcfca7fcf" x="386.831381" y="172.054291" style="fill: #ff7f0e"/>
     <use xlink:href="#m3bcfca7fcf" x="397.601373" y="145.88506" style="fill: #ff7f0e"/>
     <use xlink:href="#m3bcfca7fcf" x="381.574655" y="169.146599" style="fill: #ff7f0e"/>
     <use xlink:href="#m3bcfca7fcf" x="397.910751" y="155.577368" style="fill: #ff7f0e"/>
     <use xlink:href="#m3bcfca7fcf" x="400.99668" y="162.361983" style="fill: #ff7f0e"/>
     <use xlink:href="#m3bcfca7fcf" x="387.90602" y="180.777368" style="fill: #ff7f0e"/>
    </g>
   </g>
   <g id="legend_1">
    <g id="PathCollection_5">
     <defs>
      <path id="md15c95e4de" d="M 0 5 
C 1.326016 5 2.597899 4.473168 3.535534 3.535534 
C 4.473168 2.597899 5 1.326016 5 0 
C 5 -1.326016 4.473168 -2.597899 3.535534 -3.535534 
C 2.597899 -4.473168 1.326016 -5 0 -5 
C -1.326016 -5 -2.597899 -4.473168 -3.535534 -3.535534 
C -4.473168 -2.597899 -5 -1.326016 -5 0 
C -5 1.326016 -4.473168 2.597899 -3.535534 3.535534 
C -2.597899 4.473168 -1.326016 5 0 5 
z
"/>
     </defs>
     <g>
      <use xlink:href="#md15c95e4de" x="472.45" y="29.287031" style="fill: #ff7f0e"/>
     </g>
    </g>
    <g id="text_12">
     <!-- Normal Model -->
     <g transform="translate(494.05 32.437031) scale(0.12 -0.12)">
      <defs>
       <path id="DejaVuSans-4e" d="M 628 4666 
L 1478 4666 
L 3547 763 
L 3547 4666 
L 4159 4666 
L 4159 0 
L 3309 0 
L 1241 3903 
L 1241 0 
L 628 0 
L 628 4666 
z
" transform="scale(0.015625)"/>
      </defs>
      <use xlink:href="#DejaVuSans-4e"/>
      <use xlink:href="#DejaVuSans-6f" x="74.804688"/>
      <use xlink:href="#DejaVuSans-72" x="135.986328"/>
      <use xlink:href="#DejaVuSans-6d" x="175.349609"/>
      <use xlink:href="#DejaVuSans-61" x="272.761719"/>
      <use xlink:href="#DejaVuSans-6c" x="334.041016"/>
      <use xlink:href="#DejaVuSans-20" x="361.824219"/>
      <use xlink:href="#DejaVuSans-4d" x="393.611328"/>
      <use xlink:href="#DejaVuSans-6f" x="479.890625"/>
      <use xlink:href="#DejaVuSans-64" x="541.072266"/>
      <use xlink:href="#DejaVuSans-65" x="604.548828"/>
      <use xlink:href="#DejaVuSans-6c" x="666.072266"/>
     </g>
    </g>
    <g id="PathCollection_6">
     <defs>
      <path id="m178e41dcde" d="M 0 10 
C 2.652031 10 5.195799 8.946337 7.071068 7.071068 
C 8.946337 5.195799 10 2.652031 10 0 
C 10 -2.652031 8.946337 -5.195799 7.071068 -7.071068 
C 5.195799 -8.946337 2.652031 -10 0 -10 
C -2.652031 -10 -5.195799 -8.946337 -7.071068 -7.071068 
C -8.946337 -5.195799 -10 -2.652031 -10 0 
C -10 2.652031 -8.946337 5.195799 -7.071068 7.071068 
C -5.195799 8.946337 -2.652031 10 0 10 
z
" style="stroke: #ffffff; stroke-width: 0.8"/>
     </defs>
     <g>
      <use xlink:href="#m178e41dcde" x="472.45" y="46.900781" style="fill: #2ca02c; stroke: #ffffff; stroke-width: 0.8"/>
     </g>
    </g>
    <g id="text_13">
     <!-- Order Independent Model -->
     <g transform="translate(494.05 50.050781) scale(0.12 -0.12)">
      <defs>
       <path id="DejaVuSans-4f" d="M 2522 4238 
Q 1834 4238 1429 3725 
Q 1025 3213 1025 2328 
Q 1025 1447 1429 934 
Q 1834 422 2522 422 
Q 3209 422 3611 934 
Q 4013 1447 4013 2328 
Q 4013 3213 3611 3725 
Q 3209 4238 2522 4238 
z
M 2522 4750 
Q 3503 4750 4090 4092 
Q 4678 3434 4678 2328 
Q 4678 1225 4090 567 
Q 3503 -91 2522 -91 
Q 1538 -91 948 565 
Q 359 1222 359 2328 
Q 359 3434 948 4092 
Q 1538 4750 2522 4750 
z
" transform="scale(0.015625)"/>
       <path id="DejaVuSans-49" d="M 628 4666 
L 1259 4666 
L 1259 0 
L 628 0 
L 628 4666 
z
" transform="scale(0.015625)"/>
       <path id="DejaVuSans-6e" d="M 3513 2113 
L 3513 0 
L 2938 0 
L 2938 2094 
Q 2938 2591 2744 2837 
Q 2550 3084 2163 3084 
Q 1697 3084 1428 2787 
Q 1159 2491 1159 1978 
L 1159 0 
L 581 0 
L 581 3500 
L 1159 3500 
L 1159 2956 
Q 1366 3272 1645 3428 
Q 1925 3584 2291 3584 
Q 2894 3584 3203 3211 
Q 3513 2838 3513 2113 
z
" transform="scale(0.015625)"/>
      </defs>
      <use xlink:href="#DejaVuSans-4f"/>
      <use xlink:href="#DejaVuSans-72" x="78.710938"/>
      <use xlink:href="#DejaVuSans-64" x="118.074219"/>
      <use xlink:href="#DejaVuSans-65" x="181.550781"/>
      <use xlink:href="#DejaVuSans-72" x="243.074219"/>
      <use xlink:href="#DejaVuSans-20" x="284.1875"/>
      <use xlink:href="#DejaVuSans-49" x="315.974609"/>
      <use xlink:href="#DejaVuSans-6e" x="345.466797"/>
      <use xlink:href="#DejaVuSans-64" x="408.845703"/>
      <use xlink:href="#DejaVuSans-65" x="472.322266"/>
      <use xlink:href="#DejaVuSans-70" x="533.845703"/>
      <use xlink:href="#DejaVuSans-65" x="597.322266"/>
      <use xlink:href="#DejaVuSans-6e" x="658.845703"/>
      <use xlink:href="#DejaVuSans-64" x="722.224609"/>
      <use xlink:href="#DejaVuSans-65" x="785.701172"/>
      <use xlink:href="#DejaVuSans-6e" x="847.224609"/>
      <use xlink:href="#DejaVuSans-74" x="910.603516"/>
      <use xlink:href="#DejaVuSans-20" x="949.8125"/>
      <use xlink:href="#DejaVuSans-4d" x="981.599609"/>
      <use xlink:href="#DejaVuSans-6f" x="1067.878906"/>
      <use xlink:href="#DejaVuSans-64" x="1129.060547"/>
      <use xlink:href="#DejaVuSans-65" x="1192.537109"/>
      <use xlink:href="#DejaVuSans-6c" x="1254.060547"/>
     </g>
    </g>
   </g>
  </g>
 </g>
 <defs>
  <clipPath id="pf8b9eaedbf">
   <rect x="59.05" y="12.518906" width="390.6" height="277.2"/>
  </clipPath>
 </defs>
</svg>
